<?xml version="1.0" standalone="no"?>
<!DOCTYPE svg PUBLIC "-//W3C//DTD SVG 20010904//EN"
 "http://www.w3.org/TR/2001/REC-SVG-20010904/DTD/svg10.dtd">
<svg version="1.0" xmlns="http://www.w3.org/2000/svg"
 width="512.000000pt" height="512.000000pt" viewBox="0 0 512.000000 512.000000"
 preserveAspectRatio="xMidYMid meet">
<metadata>
Created by potrace 1.14, written by Peter Selinger 2001-2017
</metadata>
<g transform="translate(0.000000,512.000000) scale(0.100000,-0.100000)"
fill="#000000" stroke="none">
<path d="M4099 4843 c-41 -7 -89 -15 -108 -18 -18 -3 -36 -7 -40 -9 -3 -2 -26
-7 -51 -10 -43 -6 -65 -10 -120 -21 -21 -4 -79 -15 -215 -41 -11 -2 -31 -6
-45 -9 -14 -2 -41 -7 -60 -10 -19 -4 -53 -10 -75 -15 -22 -5 -56 -12 -75 -15
-44 -7 -127 -23 -160 -30 -14 -3 -50 -9 -80 -15 -30 -5 -64 -11 -75 -13 -11
-3 -58 -12 -105 -21 -47 -9 -96 -18 -110 -21 -14 -3 -63 -12 -110 -20 -47 -9
-103 -19 -125 -24 -22 -4 -56 -6 -75 -5 -61 3 -164 13 -185 18 -11 2 -56 7
-99 11 -43 4 -88 8 -98 10 -11 2 -49 7 -86 10 -66 6 -114 11 -182 20 -71 9
-146 17 -175 20 -45 3 -151 15 -235 25 -41 5 -104 12 -140 15 -36 4 -78 9 -95
11 -16 2 -55 6 -85 9 -68 7 -107 12 -190 22 -178 21 -290 -18 -378 -132 l-32
-42 -90 -1 c-49 -1 -110 -6 -135 -12 -110 -25 -211 -124 -247 -244 -9 -33 -12
-3338 -2 -3391 17 -95 94 -194 186 -239 67 -32 83 -34 250 -35 l137 -1 11 -56
c22 -106 69 -181 144 -234 93 -64 177 -75 331 -44 44 8 91 17 105 20 92 17
264 49 370 69 69 13 136 26 150 29 14 2 75 13 135 25 61 11 126 23 145 26 19
3 42 8 50 10 8 2 31 6 50 9 19 3 107 19 195 36 316 60 370 69 400 66 17 -2 59
-7 95 -11 36 -4 76 -8 90 -10 24 -3 91 -11 179 -20 24 -2 60 -7 80 -9 20 -3
83 -10 141 -16 58 -6 116 -13 130 -15 14 -2 54 -6 90 -9 36 -3 74 -8 85 -10
11 -2 54 -7 95 -11 41 -4 89 -9 105 -11 17 -2 55 -6 85 -9 30 -3 71 -8 90 -10
109 -12 148 -17 170 -20 43 -6 163 -18 200 -20 92 -3 183 32 249 96 74 73 97
137 116 329 4 36 10 83 14 105 l7 40 99 21 c117 24 171 49 227 107 93 95 115
215 73 401 -3 12 -7 32 -9 46 -6 32 -53 286 -61 325 -3 17 -10 53 -15 80 -5
28 -18 100 -30 160 -12 61 -34 180 -50 265 -16 85 -34 182 -40 214 -9 45 -9
85 0 160 6 56 13 121 16 146 4 46 11 108 19 170 2 19 7 62 10 95 3 33 10 96
15 140 5 44 12 109 15 145 3 36 8 76 10 90 3 14 7 56 11 93 3 37 7 78 10 90
10 52 19 178 18 252 0 67 -5 89 -29 138 -57 115 -156 176 -315 196 -45 6 -85
13 -89 15 -12 8 -37 99 -56 206 -21 112 -43 163 -96 224 -77 87 -194 123 -330
99z"/>
</g>
</svg>
